  0
SECTION
  2
BLOCKS
  0
ENDSEC
  0
SECTION
  2
ENTITIES
  0
LINE
  8
0
 10
2.15308
 20
-34.2223
 11
4.29767
 21
-34.0196
  0
LINE
  8
0
 10
4.29767
 20
-34.0196
 11
6.42529
 21
-33.6826
  0
LINE
  8
0
 10
6.42529
 20
-33.6826
 11
8.52757
 21
-33.2127
  0
LINE
  8
0
 10
8.52757
 20
-33.2127
 11
10.5962
 21
-32.6117
  0
LINE
  8
0
 10
10.5962
 20
-32.6117
 11
12.623
 21
-31.882
  0
LINE
  8
0
 10
12.623
 20
-31.882
 11
14.6
 21
-31.0265
  0
LINE
  8
0
 10
14.6
 20
-31.0265
 11
16.5193
 21
-30.0486
  0
LINE
  8
0
 10
16.5193
 20
-30.0486
 11
18.3735
 21
-28.952
  0
LINE
  8
0
 10
18.3735
 20
-28.952
 11
20.1552
 21
-27.7412
  0
LINE
  8
0
 10
20.1552
 20
-27.7412
 11
21.8573
 21
-26.4209
  0
LINE
  8
0
 10
21.8573
 20
-26.4209
 11
23.4731
 21
-24.9963
  0
LINE
  8
0
 10
23.4731
 20
-24.9963
 11
24.9963
 21
-23.4731
  0
LINE
  8
0
 10
24.9963
 20
-23.4731
 11
26.4209
 21
-21.8573
  0
LINE
  8
0
 10
26.4209
 20
-21.8573
 11
27.7412
 21
-20.1552
  0
LINE
  8
0
 10
27.7412
 20
-20.1552
 11
28.952
 21
-18.3735
  0
LINE
  8
0
 10
28.952
 20
-18.3735
 11
30.0486
 21
-16.5193
  0
LINE
  8
0
 10
30.0486
 20
-16.5193
 11
31.0265
 21
-14.6
  0
LINE
  8
0
 10
31.0265
 20
-14.6
 11
31.882
 21
-12.623
  0
LINE
  8
0
 10
31.882
 20
-12.623
 11
32.6117
 21
-10.5962
  0
LINE
  8
0
 10
32.6117
 20
-10.5962
 11
33.2127
 21
-8.52757
  0
LINE
  8
0
 10
33.2127
 20
-8.52757
 11
33.6826
 21
-6.42529
  0
LINE
  8
0
 10
33.6826
 20
-6.42529
 11
34.0196
 21
-4.29767
  0
LINE
  8
0
 10
34.0196
 20
-4.29767
 11
34.2223
 21
-2.15308
  0
LINE
  8
0
 10
34.2223
 20
-2.15308
 11
34.29
 21
0
  0
LINE
  8
0
 10
34.29
 20
0
 11
34.2223
 21
2.15308
  0
LINE
  8
0
 10
34.2223
 20
2.15308
 11
34.0196
 21
4.29767
  0
LINE
  8
0
 10
34.0196
 20
4.29767
 11
33.6826
 21
6.42529
  0
LINE
  8
0
 10
33.6826
 20
6.42529
 11
33.2127
 21
8.52757
  0
LINE
  8
0
 10
33.2127
 20
8.52757
 11
32.6117
 21
10.5962
  0
LINE
  8
0
 10
32.6117
 20
10.5962
 11
31.882
 21
12.623
  0
LINE
  8
0
 10
31.882
 20
12.623
 11
31.0265
 21
14.6
  0
LINE
  8
0
 10
31.0265
 20
14.6
 11
30.0486
 21
16.5193
  0
LINE
  8
0
 10
30.0486
 20
16.5193
 11
28.952
 21
18.3735
  0
LINE
  8
0
 10
28.952
 20
18.3735
 11
27.7412
 21
20.1552
  0
LINE
  8
0
 10
27.7412
 20
20.1552
 11
26.4209
 21
21.8573
  0
LINE
  8
0
 10
26.4209
 20
21.8573
 11
24.9963
 21
23.4731
  0
LINE
  8
0
 10
24.9963
 20
23.4731
 11
23.4731
 21
24.9963
  0
LINE
  8
0
 10
23.4731
 20
24.9963
 11
21.8573
 21
26.4209
  0
LINE
  8
0
 10
21.8573
 20
26.4209
 11
20.1552
 21
27.7412
  0
LINE
  8
0
 10
20.1552
 20
27.7412
 11
18.3735
 21
28.952
  0
LINE
  8
0
 10
18.3735
 20
28.952
 11
16.5193
 21
30.0486
  0
LINE
  8
0
 10
16.5193
 20
30.0486
 11
14.6
 21
31.0265
  0
LINE
  8
0
 10
14.6
 20
31.0265
 11
12.623
 21
31.882
  0
LINE
  8
0
 10
12.623
 20
31.882
 11
10.5962
 21
32.6117
  0
LINE
  8
0
 10
10.5962
 20
32.6117
 11
8.52757
 21
33.2127
  0
LINE
  8
0
 10
8.52757
 20
33.2127
 11
6.42529
 21
33.6826
  0
LINE
  8
0
 10
6.42529
 20
33.6826
 11
4.29767
 21
34.0196
  0
LINE
  8
0
 10
4.29767
 20
34.0196
 11
2.15308
 21
34.2223
  0
LINE
  8
0
 10
2.15308
 20
34.2223
 11
0
 21
34.29
  0
LINE
  8
0
 10
0
 20
34.29
 11
-2.15308
 21
34.2223
  0
LINE
  8
0
 10
-2.15308
 20
34.2223
 11
-4.29767
 21
34.0196
  0
LINE
  8
0
 10
-4.29767
 20
34.0196
 11
-6.42529
 21
33.6826
  0
LINE
  8
0
 10
-6.42529
 20
33.6826
 11
-8.52757
 21
33.2127
  0
LINE
  8
0
 10
-8.52757
 20
33.2127
 11
-10.5962
 21
32.6117
  0
LINE
  8
0
 10
-10.5962
 20
32.6117
 11
-12.623
 21
31.882
  0
LINE
  8
0
 10
-12.623
 20
31.882
 11
-14.6
 21
31.0265
  0
LINE
  8
0
 10
-14.6
 20
31.0265
 11
-16.5193
 21
30.0486
  0
LINE
  8
0
 10
-16.5193
 20
30.0486
 11
-18.3735
 21
28.952
  0
LINE
  8
0
 10
-18.3735
 20
28.952
 11
-20.1552
 21
27.7412
  0
LINE
  8
0
 10
-20.1552
 20
27.7412
 11
-21.8573
 21
26.4209
  0
LINE
  8
0
 10
-21.8573
 20
26.4209
 11
-23.4731
 21
24.9963
  0
LINE
  8
0
 10
-23.4731
 20
24.9963
 11
-24.9963
 21
23.4731
  0
LINE
  8
0
 10
-24.9963
 20
23.4731
 11
-26.4209
 21
21.8573
  0
LINE
  8
0
 10
-26.4209
 20
21.8573
 11
-27.7412
 21
20.1552
  0
LINE
  8
0
 10
-27.7412
 20
20.1552
 11
-28.952
 21
18.3735
  0
LINE
  8
0
 10
-28.952
 20
18.3735
 11
-30.0486
 21
16.5193
  0
LINE
  8
0
 10
-30.0486
 20
16.5193
 11
-31.0265
 21
14.6
  0
LINE
  8
0
 10
-31.0265
 20
14.6
 11
-31.882
 21
12.623
  0
LINE
  8
0
 10
-31.882
 20
12.623
 11
-32.6117
 21
10.5962
  0
LINE
  8
0
 10
-32.6117
 20
10.5962
 11
-33.2127
 21
8.52757
  0
LINE
  8
0
 10
-33.2127
 20
8.52757
 11
-33.6826
 21
6.42529
  0
LINE
  8
0
 10
-33.6826
 20
6.42529
 11
-34.0196
 21
4.29767
  0
LINE
  8
0
 10
-34.0196
 20
4.29767
 11
-34.2223
 21
2.15308
  0
LINE
  8
0
 10
-34.2223
 20
2.15308
 11
-34.29
 21
0
  0
LINE
  8
0
 10
-34.29
 20
0
 11
-34.2223
 21
-2.15308
  0
LINE
  8
0
 10
-34.2223
 20
-2.15308
 11
-34.0196
 21
-4.29767
  0
LINE
  8
0
 10
-34.0196
 20
-4.29767
 11
-33.6826
 21
-6.42529
  0
LINE
  8
0
 10
-33.6826
 20
-6.42529
 11
-33.2127
 21
-8.52757
  0
LINE
  8
0
 10
-33.2127
 20
-8.52757
 11
-32.6117
 21
-10.5962
  0
LINE
  8
0
 10
-32.6117
 20
-10.5962
 11
-31.882
 21
-12.623
  0
LINE
  8
0
 10
-31.882
 20
-12.623
 11
-31.0265
 21
-14.6
  0
LINE
  8
0
 10
-31.0265
 20
-14.6
 11
-30.0486
 21
-16.5193
  0
LINE
  8
0
 10
-30.0486
 20
-16.5193
 11
-28.952
 21
-18.3735
  0
LINE
  8
0
 10
-28.952
 20
-18.3735
 11
-27.7412
 21
-20.1552
  0
LINE
  8
0
 10
-27.7412
 20
-20.1552
 11
-26.4209
 21
-21.8573
  0
LINE
  8
0
 10
-26.4209
 20
-21.8573
 11
-24.9963
 21
-23.4731
  0
LINE
  8
0
 10
-24.9963
 20
-23.4731
 11
-23.4731
 21
-24.9963
  0
LINE
  8
0
 10
-23.4731
 20
-24.9963
 11
-21.8573
 21
-26.4209
  0
LINE
  8
0
 10
-21.8573
 20
-26.4209
 11
-20.1552
 21
-27.7412
  0
LINE
  8
0
 10
-20.1552
 20
-27.7412
 11
-18.3735
 21
-28.952
  0
LINE
  8
0
 10
-18.3735
 20
-28.952
 11
-16.5193
 21
-30.0486
  0
LINE
  8
0
 10
-16.5193
 20
-30.0486
 11
-14.6
 21
-31.0265
  0
LINE
  8
0
 10
-14.6
 20
-31.0265
 11
-12.623
 21
-31.882
  0
LINE
  8
0
 10
-12.623
 20
-31.882
 11
-10.5962
 21
-32.6117
  0
LINE
  8
0
 10
-10.5962
 20
-32.6117
 11
-8.52757
 21
-33.2127
  0
LINE
  8
0
 10
-8.52757
 20
-33.2127
 11
-6.42529
 21
-33.6826
  0
LINE
  8
0
 10
-6.42529
 20
-33.6826
 11
-4.29767
 21
-34.0196
  0
LINE
  8
0
 10
-4.29767
 20
-34.0196
 11
-2.15308
 21
-34.2223
  0
LINE
  8
0
 10
-2.15308
 20
-34.2223
 11
0
 21
-34.29
  0
LINE
  8
0
 10
0
 20
-34.29
 11
2.15308
 21
-34.2223
  0
LINE
  8
0
 10
-0.753479
 20
-11.9763
 11
-1.504
 21
-11.9054
  0
LINE
  8
0
 10
-1.504
 20
-11.9054
 11
-2.24857
 21
-11.7874
  0
LINE
  8
0
 10
-2.24857
 20
-11.7874
 11
-2.98427
 21
-11.623
  0
LINE
  8
0
 10
-2.98427
 20
-11.623
 11
-3.70819
 21
-11.4127
  0
LINE
  8
0
 10
-3.70819
 20
-11.4127
 11
-4.41748
 21
-11.1573
  0
LINE
  8
0
 10
-4.41748
 20
-11.1573
 11
-5.10934
 21
-10.8579
  0
LINE
  8
0
 10
-5.10934
 20
-10.8579
 11
-5.78104
 21
-10.5157
  0
LINE
  8
0
 10
-5.78104
 20
-10.5157
 11
-6.42992
 21
-10.1319
  0
LINE
  8
0
 10
-6.42992
 20
-10.1319
 11
-7.05342
 21
-9.70819
  0
LINE
  8
0
 10
-7.05342
 20
-9.70819
 11
-7.64908
 21
-9.24615
  0
LINE
  8
0
 10
-7.64908
 20
-9.24615
 11
-8.21455
 21
-8.74762
  0
LINE
  8
0
 10
-8.21455
 20
-8.74762
 11
-8.74762
 21
-8.21455
  0
LINE
  8
0
 10
-8.74762
 20
-8.21455
 11
-9.24615
 21
-7.64908
  0
LINE
  8
0
 10
-9.24615
 20
-7.64908
 11
-9.70819
 21
-7.05342
  0
LINE
  8
0
 10
-9.70819
 20
-7.05342
 11
-10.1319
 21
-6.42992
  0
LINE
  8
0
 10
-10.1319
 20
-6.42992
 11
-10.5157
 21
-5.78104
  0
LINE
  8
0
 10
-10.5157
 20
-5.78104
 11
-10.8579
 21
-5.10934
  0
LINE
  8
0
 10
-10.8579
 20
-5.10934
 11
-11.1573
 21
-4.41748
  0
LINE
  8
0
 10
-11.1573
 20
-4.41748
 11
-11.4127
 21
-3.70819
  0
LINE
  8
0
 10
-11.4127
 20
-3.70819
 11
-11.623
 21
-2.98427
  0
LINE
  8
0
 10
-11.623
 20
-2.98427
 11
-11.7874
 21
-2.24857
  0
LINE
  8
0
 10
-11.7874
 20
-2.24857
 11
-11.9054
 21
-1.504
  0
LINE
  8
0
 10
-11.9054
 20
-1.504
 11
-11.9763
 21
-0.753479
  0
LINE
  8
0
 10
-11.9763
 20
-0.753479
 11
-12
 21
0
  0
LINE
  8
0
 10
-12
 20
0
 11
-11.9763
 21
0.753479
  0
LINE
  8
0
 10
-11.9763
 20
0.753479
 11
-11.9054
 21
1.504
  0
LINE
  8
0
 10
-11.9054
 20
1.504
 11
-11.7874
 21
2.24857
  0
LINE
  8
0
 10
-11.7874
 20
2.24857
 11
-11.623
 21
2.98427
  0
LINE
  8
0
 10
-11.623
 20
2.98427
 11
-11.4127
 21
3.70819
  0
LINE
  8
0
 10
-11.4127
 20
3.70819
 11
-11.1573
 21
4.41748
  0
LINE
  8
0
 10
-11.1573
 20
4.41748
 11
-10.8579
 21
5.10934
  0
LINE
  8
0
 10
-10.8579
 20
5.10934
 11
-10.5157
 21
5.78104
  0
LINE
  8
0
 10
-10.5157
 20
5.78104
 11
-10.1319
 21
6.42992
  0
LINE
  8
0
 10
-10.1319
 20
6.42992
 11
-9.70819
 21
7.05342
  0
LINE
  8
0
 10
-9.70819
 20
7.05342
 11
-9.24615
 21
7.64908
  0
LINE
  8
0
 10
-9.24615
 20
7.64908
 11
-8.74762
 21
8.21455
  0
LINE
  8
0
 10
-8.74762
 20
8.21455
 11
-8.21455
 21
8.74762
  0
LINE
  8
0
 10
-8.21455
 20
8.74762
 11
-7.64908
 21
9.24615
  0
LINE
  8
0
 10
-7.64908
 20
9.24615
 11
-7.05342
 21
9.70819
  0
LINE
  8
0
 10
-7.05342
 20
9.70819
 11
-6.42992
 21
10.1319
  0
LINE
  8
0
 10
-6.42992
 20
10.1319
 11
-5.78104
 21
10.5157
  0
LINE
  8
0
 10
-5.78104
 20
10.5157
 11
-5.10934
 21
10.8579
  0
LINE
  8
0
 10
-5.10934
 20
10.8579
 11
-4.41748
 21
11.1573
  0
LINE
  8
0
 10
-4.41748
 20
11.1573
 11
-3.70819
 21
11.4127
  0
LINE
  8
0
 10
-3.70819
 20
11.4127
 11
-2.98427
 21
11.623
  0
LINE
  8
0
 10
-2.98427
 20
11.623
 11
-2.24857
 21
11.7874
  0
LINE
  8
0
 10
-2.24857
 20
11.7874
 11
-1.504
 21
11.9054
  0
LINE
  8
0
 10
-1.504
 20
11.9054
 11
-0.753479
 21
11.9763
  0
LINE
  8
0
 10
-0.753479
 20
11.9763
 11
0
 21
12
  0
LINE
  8
0
 10
0
 20
12
 11
0.753479
 21
11.9763
  0
LINE
  8
0
 10
0.753479
 20
11.9763
 11
1.504
 21
11.9054
  0
LINE
  8
0
 10
1.504
 20
11.9054
 11
2.24857
 21
11.7874
  0
LINE
  8
0
 10
2.24857
 20
11.7874
 11
2.98427
 21
11.623
  0
LINE
  8
0
 10
2.98427
 20
11.623
 11
3.70819
 21
11.4127
  0
LINE
  8
0
 10
3.70819
 20
11.4127
 11
4.41748
 21
11.1573
  0
LINE
  8
0
 10
4.41748
 20
11.1573
 11
5.10934
 21
10.8579
  0
LINE
  8
0
 10
5.10934
 20
10.8579
 11
5.78104
 21
10.5157
  0
LINE
  8
0
 10
5.78104
 20
10.5157
 11
6.42992
 21
10.1319
  0
LINE
  8
0
 10
6.42992
 20
10.1319
 11
7.05342
 21
9.70819
  0
LINE
  8
0
 10
7.05342
 20
9.70819
 11
7.64908
 21
9.24615
  0
LINE
  8
0
 10
7.64908
 20
9.24615
 11
8.21455
 21
8.74762
  0
LINE
  8
0
 10
8.21455
 20
8.74762
 11
8.74762
 21
8.21455
  0
LINE
  8
0
 10
8.74762
 20
8.21455
 11
9.24615
 21
7.64908
  0
LINE
  8
0
 10
9.24615
 20
7.64908
 11
9.70819
 21
7.05342
  0
LINE
  8
0
 10
9.70819
 20
7.05342
 11
10.1319
 21
6.42992
  0
LINE
  8
0
 10
10.1319
 20
6.42992
 11
10.5157
 21
5.78104
  0
LINE
  8
0
 10
10.5157
 20
5.78104
 11
10.8579
 21
5.10934
  0
LINE
  8
0
 10
10.8579
 20
5.10934
 11
11.1573
 21
4.41748
  0
LINE
  8
0
 10
11.1573
 20
4.41748
 11
11.4127
 21
3.70819
  0
LINE
  8
0
 10
11.4127
 20
3.70819
 11
11.623
 21
2.98427
  0
LINE
  8
0
 10
11.623
 20
2.98427
 11
11.7874
 21
2.24857
  0
LINE
  8
0
 10
11.7874
 20
2.24857
 11
11.9054
 21
1.504
  0
LINE
  8
0
 10
11.9054
 20
1.504
 11
11.9763
 21
0.753479
  0
LINE
  8
0
 10
11.9763
 20
0.753479
 11
12
 21
0
  0
LINE
  8
0
 10
12
 20
0
 11
11.9763
 21
-0.753479
  0
LINE
  8
0
 10
11.9763
 20
-0.753479
 11
11.9054
 21
-1.504
  0
LINE
  8
0
 10
11.9054
 20
-1.504
 11
11.7874
 21
-2.24857
  0
LINE
  8
0
 10
11.7874
 20
-2.24857
 11
11.623
 21
-2.98427
  0
LINE
  8
0
 10
11.623
 20
-2.98427
 11
11.4127
 21
-3.70819
  0
LINE
  8
0
 10
11.4127
 20
-3.70819
 11
11.1573
 21
-4.41748
  0
LINE
  8
0
 10
11.1573
 20
-4.41748
 11
10.8579
 21
-5.10934
  0
LINE
  8
0
 10
10.8579
 20
-5.10934
 11
10.5157
 21
-5.78104
  0
LINE
  8
0
 10
10.5157
 20
-5.78104
 11
10.1319
 21
-6.42992
  0
LINE
  8
0
 10
10.1319
 20
-6.42992
 11
9.70819
 21
-7.05342
  0
LINE
  8
0
 10
9.70819
 20
-7.05342
 11
9.24615
 21
-7.64908
  0
LINE
  8
0
 10
9.24615
 20
-7.64908
 11
8.74762
 21
-8.21455
  0
LINE
  8
0
 10
8.74762
 20
-8.21455
 11
8.21455
 21
-8.74762
  0
LINE
  8
0
 10
8.21455
 20
-8.74762
 11
7.64908
 21
-9.24615
  0
LINE
  8
0
 10
7.64908
 20
-9.24615
 11
7.05342
 21
-9.70819
  0
LINE
  8
0
 10
7.05342
 20
-9.70819
 11
6.42992
 21
-10.1319
  0
LINE
  8
0
 10
6.42992
 20
-10.1319
 11
5.78104
 21
-10.5157
  0
LINE
  8
0
 10
5.78104
 20
-10.5157
 11
5.10934
 21
-10.8579
  0
LINE
  8
0
 10
5.10934
 20
-10.8579
 11
4.41748
 21
-11.1573
  0
LINE
  8
0
 10
4.41748
 20
-11.1573
 11
3.70819
 21
-11.4127
  0
LINE
  8
0
 10
3.70819
 20
-11.4127
 11
2.98427
 21
-11.623
  0
LINE
  8
0
 10
2.98427
 20
-11.623
 11
2.24857
 21
-11.7874
  0
LINE
  8
0
 10
2.24857
 20
-11.7874
 11
1.504
 21
-11.9054
  0
LINE
  8
0
 10
1.504
 20
-11.9054
 11
0.753479
 21
-11.9763
  0
LINE
  8
0
 10
0.753479
 20
-11.9763
 11
0
 21
-12
  0
LINE
  8
0
 10
0
 20
-12
 11
-0.753479
 21
-11.9763
  0
ENDSEC
  0
SECTION
  2
OBJECTS
  0
DICTIONARY
  0
ENDSEC
  0
EOF
