  0
SECTION
  2
BLOCKS
  0
ENDSEC
  0
SECTION
  2
ENTITIES
  0
LINE
  8
0
 10
2.39232
 20
-38.0248
 11
4.77519
 21
-37.7996
  0
LINE
  8
0
 10
4.77519
 20
-37.7996
 11
7.13922
 21
-37.4251
  0
LINE
  8
0
 10
7.13922
 20
-37.4251
 11
9.47508
 21
-36.903
  0
LINE
  8
0
 10
9.47508
 20
-36.903
 11
11.7735
 21
-36.2352
  0
LINE
  8
0
 10
11.7735
 20
-36.2352
 11
14.0255
 21
-35.4245
  0
LINE
  8
0
 10
14.0255
 20
-35.4245
 11
16.2222
 21
-34.4739
  0
LINE
  8
0
 10
16.2222
 20
-34.4739
 11
18.3548
 21
-33.3873
  0
LINE
  8
0
 10
18.3548
 20
-33.3873
 11
20.415
 21
-32.1689
  0
LINE
  8
0
 10
20.415
 20
-32.1689
 11
22.3946
 21
-30.8235
  0
LINE
  8
0
 10
22.3946
 20
-30.8235
 11
24.2858
 21
-29.3566
  0
LINE
  8
0
 10
24.2858
 20
-29.3566
 11
26.0812
 21
-27.7737
  0
LINE
  8
0
 10
26.0812
 20
-27.7737
 11
27.7737
 21
-26.0812
  0
LINE
  8
0
 10
27.7737
 20
-26.0812
 11
29.3566
 21
-24.2858
  0
LINE
  8
0
 10
29.3566
 20
-24.2858
 11
30.8235
 21
-22.3946
  0
LINE
  8
0
 10
30.8235
 20
-22.3946
 11
32.1689
 21
-20.415
  0
LINE
  8
0
 10
32.1689
 20
-20.415
 11
33.3873
 21
-18.3548
  0
LINE
  8
0
 10
33.3873
 20
-18.3548
 11
34.4739
 21
-16.2222
  0
LINE
  8
0
 10
34.4739
 20
-16.2222
 11
35.4245
 21
-14.0255
  0
LINE
  8
0
 10
35.4245
 20
-14.0255
 11
36.2352
 21
-11.7735
  0
LINE
  8
0
 10
36.2352
 20
-11.7735
 11
36.903
 21
-9.47508
  0
LINE
  8
0
 10
36.903
 20
-9.47508
 11
37.4251
 21
-7.13922
  0
LINE
  8
0
 10
37.4251
 20
-7.13922
 11
37.7996
 21
-4.77519
  0
LINE
  8
0
 10
37.7996
 20
-4.77519
 11
38.0248
 21
-2.39232
  0
LINE
  8
0
 10
38.0248
 20
-2.39232
 11
38.1
 21
0
  0
LINE
  8
0
 10
38.1
 20
0
 11
38.0248
 21
2.39232
  0
LINE
  8
0
 10
38.0248
 20
2.39232
 11
37.7996
 21
4.77519
  0
LINE
  8
0
 10
37.7996
 20
4.77519
 11
37.4251
 21
7.13922
  0
LINE
  8
0
 10
37.4251
 20
7.13922
 11
36.903
 21
9.47508
  0
LINE
  8
0
 10
36.903
 20
9.47508
 11
36.2352
 21
11.7735
  0
LINE
  8
0
 10
36.2352
 20
11.7735
 11
35.4245
 21
14.0255
  0
LINE
  8
0
 10
35.4245
 20
14.0255
 11
34.4739
 21
16.2222
  0
LINE
  8
0
 10
34.4739
 20
16.2222
 11
33.3873
 21
18.3548
  0
LINE
  8
0
 10
33.3873
 20
18.3548
 11
32.1689
 21
20.415
  0
LINE
  8
0
 10
32.1689
 20
20.415
 11
30.8235
 21
22.3946
  0
LINE
  8
0
 10
30.8235
 20
22.3946
 11
29.3566
 21
24.2858
  0
LINE
  8
0
 10
29.3566
 20
24.2858
 11
27.7737
 21
26.0812
  0
LINE
  8
0
 10
27.7737
 20
26.0812
 11
26.0812
 21
27.7737
  0
LINE
  8
0
 10
26.0812
 20
27.7737
 11
24.2858
 21
29.3566
  0
LINE
  8
0
 10
24.2858
 20
29.3566
 11
22.3946
 21
30.8235
  0
LINE
  8
0
 10
22.3946
 20
30.8235
 11
20.415
 21
32.1689
  0
LINE
  8
0
 10
20.415
 20
32.1689
 11
18.3548
 21
33.3873
  0
LINE
  8
0
 10
18.3548
 20
33.3873
 11
16.2222
 21
34.4739
  0
LINE
  8
0
 10
16.2222
 20
34.4739
 11
14.0255
 21
35.4245
  0
LINE
  8
0
 10
14.0255
 20
35.4245
 11
11.7735
 21
36.2352
  0
LINE
  8
0
 10
11.7735
 20
36.2352
 11
9.47508
 21
36.903
  0
LINE
  8
0
 10
9.47508
 20
36.903
 11
7.13922
 21
37.4251
  0
LINE
  8
0
 10
7.13922
 20
37.4251
 11
4.77519
 21
37.7996
  0
LINE
  8
0
 10
4.77519
 20
37.7996
 11
2.39232
 21
38.0248
  0
LINE
  8
0
 10
2.39232
 20
38.0248
 11
0
 21
38.1
  0
LINE
  8
0
 10
0
 20
38.1
 11
-2.39232
 21
38.0248
  0
LINE
  8
0
 10
-2.39232
 20
38.0248
 11
-4.77519
 21
37.7996
  0
LINE
  8
0
 10
-4.77519
 20
37.7996
 11
-7.13922
 21
37.4251
  0
LINE
  8
0
 10
-7.13922
 20
37.4251
 11
-9.47508
 21
36.903
  0
LINE
  8
0
 10
-9.47508
 20
36.903
 11
-11.7735
 21
36.2352
  0
LINE
  8
0
 10
-11.7735
 20
36.2352
 11
-14.0255
 21
35.4245
  0
LINE
  8
0
 10
-14.0255
 20
35.4245
 11
-16.2222
 21
34.4739
  0
LINE
  8
0
 10
-16.2222
 20
34.4739
 11
-18.3548
 21
33.3873
  0
LINE
  8
0
 10
-18.3548
 20
33.3873
 11
-20.415
 21
32.1689
  0
LINE
  8
0
 10
-20.415
 20
32.1689
 11
-22.3946
 21
30.8235
  0
LINE
  8
0
 10
-22.3946
 20
30.8235
 11
-24.2858
 21
29.3566
  0
LINE
  8
0
 10
-24.2858
 20
29.3566
 11
-26.0812
 21
27.7737
  0
LINE
  8
0
 10
-26.0812
 20
27.7737
 11
-27.7737
 21
26.0812
  0
LINE
  8
0
 10
-27.7737
 20
26.0812
 11
-29.3566
 21
24.2858
  0
LINE
  8
0
 10
-29.3566
 20
24.2858
 11
-30.8235
 21
22.3946
  0
LINE
  8
0
 10
-30.8235
 20
22.3946
 11
-32.1689
 21
20.415
  0
LINE
  8
0
 10
-32.1689
 20
20.415
 11
-33.3873
 21
18.3548
  0
LINE
  8
0
 10
-33.3873
 20
18.3548
 11
-34.4739
 21
16.2222
  0
LINE
  8
0
 10
-34.4739
 20
16.2222
 11
-35.4245
 21
14.0255
  0
LINE
  8
0
 10
-35.4245
 20
14.0255
 11
-36.2352
 21
11.7735
  0
LINE
  8
0
 10
-36.2352
 20
11.7735
 11
-36.903
 21
9.47508
  0
LINE
  8
0
 10
-36.903
 20
9.47508
 11
-37.4251
 21
7.13922
  0
LINE
  8
0
 10
-37.4251
 20
7.13922
 11
-37.7996
 21
4.77519
  0
LINE
  8
0
 10
-37.7996
 20
4.77519
 11
-38.0248
 21
2.39232
  0
LINE
  8
0
 10
-38.0248
 20
2.39232
 11
-38.1
 21
0
  0
LINE
  8
0
 10
-38.1
 20
0
 11
-38.0248
 21
-2.39232
  0
LINE
  8
0
 10
-38.0248
 20
-2.39232
 11
-37.7996
 21
-4.77519
  0
LINE
  8
0
 10
-37.7996
 20
-4.77519
 11
-37.4251
 21
-7.13922
  0
LINE
  8
0
 10
-37.4251
 20
-7.13922
 11
-36.903
 21
-9.47508
  0
LINE
  8
0
 10
-36.903
 20
-9.47508
 11
-36.2352
 21
-11.7735
  0
LINE
  8
0
 10
-36.2352
 20
-11.7735
 11
-35.4245
 21
-14.0255
  0
LINE
  8
0
 10
-35.4245
 20
-14.0255
 11
-34.4739
 21
-16.2222
  0
LINE
  8
0
 10
-34.4739
 20
-16.2222
 11
-33.3873
 21
-18.3548
  0
LINE
  8
0
 10
-33.3873
 20
-18.3548
 11
-32.1689
 21
-20.415
  0
LINE
  8
0
 10
-32.1689
 20
-20.415
 11
-30.8235
 21
-22.3946
  0
LINE
  8
0
 10
-30.8235
 20
-22.3946
 11
-29.3566
 21
-24.2858
  0
LINE
  8
0
 10
-29.3566
 20
-24.2858
 11
-27.7737
 21
-26.0812
  0
LINE
  8
0
 10
-27.7737
 20
-26.0812
 11
-26.0812
 21
-27.7737
  0
LINE
  8
0
 10
-26.0812
 20
-27.7737
 11
-24.2858
 21
-29.3566
  0
LINE
  8
0
 10
-24.2858
 20
-29.3566
 11
-22.3946
 21
-30.8235
  0
LINE
  8
0
 10
-22.3946
 20
-30.8235
 11
-20.415
 21
-32.1689
  0
LINE
  8
0
 10
-20.415
 20
-32.1689
 11
-18.3548
 21
-33.3873
  0
LINE
  8
0
 10
-18.3548
 20
-33.3873
 11
-16.2222
 21
-34.4739
  0
LINE
  8
0
 10
-16.2222
 20
-34.4739
 11
-14.0255
 21
-35.4245
  0
LINE
  8
0
 10
-14.0255
 20
-35.4245
 11
-11.7735
 21
-36.2352
  0
LINE
  8
0
 10
-11.7735
 20
-36.2352
 11
-9.47508
 21
-36.903
  0
LINE
  8
0
 10
-9.47508
 20
-36.903
 11
-7.13922
 21
-37.4251
  0
LINE
  8
0
 10
-7.13922
 20
-37.4251
 11
-4.77519
 21
-37.7996
  0
LINE
  8
0
 10
-4.77519
 20
-37.7996
 11
-2.39232
 21
-38.0248
  0
LINE
  8
0
 10
-2.39232
 20
-38.0248
 11
0
 21
-38.1
  0
LINE
  8
0
 10
0
 20
-38.1
 11
2.39232
 21
-38.0248
  0
LINE
  8
0
 10
-0.816269
 20
-12.9743
 11
-1.62932
 21
-12.8975
  0
LINE
  8
0
 10
-1.62932
 20
-12.8975
 11
-2.43594
 21
-12.7697
  0
LINE
  8
0
 10
-2.43594
 20
-12.7697
 11
-3.23296
 21
-12.5916
  0
LINE
  8
0
 10
-3.23296
 20
-12.5916
 11
-4.01721
 21
-12.3637
  0
LINE
  8
0
 10
-4.01721
 20
-12.3637
 11
-4.78561
 21
-12.0871
  0
LINE
  8
0
 10
-4.78561
 20
-12.0871
 11
-5.53513
 21
-11.7627
  0
LINE
  8
0
 10
-5.53513
 20
-11.7627
 11
-6.26279
 21
-11.392
  0
LINE
  8
0
 10
-6.26279
 20
-11.392
 11
-6.96574
 21
-10.9763
  0
LINE
  8
0
 10
-6.96574
 20
-10.9763
 11
-7.6412
 21
-10.5172
  0
LINE
  8
0
 10
-7.6412
 20
-10.5172
 11
-8.2865
 21
-10.0167
  0
LINE
  8
0
 10
-8.2865
 20
-10.0167
 11
-8.89911
 21
-9.47658
  0
LINE
  8
0
 10
-8.89911
 20
-9.47658
 11
-9.47658
 21
-8.89911
  0
LINE
  8
0
 10
-9.47658
 20
-8.89911
 11
-10.0167
 21
-8.2865
  0
LINE
  8
0
 10
-10.0167
 20
-8.2865
 11
-10.5172
 21
-7.6412
  0
LINE
  8
0
 10
-10.5172
 20
-7.6412
 11
-10.9763
 21
-6.96574
  0
LINE
  8
0
 10
-10.9763
 20
-6.96574
 11
-11.392
 21
-6.26279
  0
LINE
  8
0
 10
-11.392
 20
-6.26279
 11
-11.7627
 21
-5.53513
  0
LINE
  8
0
 10
-11.7627
 20
-5.53513
 11
-12.0871
 21
-4.78561
  0
LINE
  8
0
 10
-12.0871
 20
-4.78561
 11
-12.3637
 21
-4.01721
  0
LINE
  8
0
 10
-12.3637
 20
-4.01721
 11
-12.5916
 21
-3.23296
  0
LINE
  8
0
 10
-12.5916
 20
-3.23296
 11
-12.7697
 21
-2.43594
  0
LINE
  8
0
 10
-12.7697
 20
-2.43594
 11
-12.8975
 21
-1.62932
  0
LINE
  8
0
 10
-12.8975
 20
-1.62932
 11
-12.9743
 21
-0.816269
  0
LINE
  8
0
 10
-12.9743
 20
-0.816269
 11
-13
 21
0
  0
LINE
  8
0
 10
-13
 20
0
 11
-12.9743
 21
0.816269
  0
LINE
  8
0
 10
-12.9743
 20
0.816269
 11
-12.8975
 21
1.62932
  0
LINE
  8
0
 10
-12.8975
 20
1.62932
 11
-12.7697
 21
2.43594
  0
LINE
  8
0
 10
-12.7697
 20
2.43594
 11
-12.5916
 21
3.23296
  0
LINE
  8
0
 10
-12.5916
 20
3.23296
 11
-12.3637
 21
4.01721
  0
LINE
  8
0
 10
-12.3637
 20
4.01721
 11
-12.0871
 21
4.78561
  0
LINE
  8
0
 10
-12.0871
 20
4.78561
 11
-11.7627
 21
5.53513
  0
LINE
  8
0
 10
-11.7627
 20
5.53513
 11
-11.392
 21
6.26279
  0
LINE
  8
0
 10
-11.392
 20
6.26279
 11
-10.9763
 21
6.96574
  0
LINE
  8
0
 10
-10.9763
 20
6.96574
 11
-10.5172
 21
7.6412
  0
LINE
  8
0
 10
-10.5172
 20
7.6412
 11
-10.0167
 21
8.2865
  0
LINE
  8
0
 10
-10.0167
 20
8.2865
 11
-9.47658
 21
8.89911
  0
LINE
  8
0
 10
-9.47658
 20
8.89911
 11
-8.89911
 21
9.47658
  0
LINE
  8
0
 10
-8.89911
 20
9.47658
 11
-8.2865
 21
10.0167
  0
LINE
  8
0
 10
-8.2865
 20
10.0167
 11
-7.6412
 21
10.5172
  0
LINE
  8
0
 10
-7.6412
 20
10.5172
 11
-6.96574
 21
10.9763
  0
LINE
  8
0
 10
-6.96574
 20
10.9763
 11
-6.26279
 21
11.392
  0
LINE
  8
0
 10
-6.26279
 20
11.392
 11
-5.53513
 21
11.7627
  0
LINE
  8
0
 10
-5.53513
 20
11.7627
 11
-4.78561
 21
12.0871
  0
LINE
  8
0
 10
-4.78561
 20
12.0871
 11
-4.01721
 21
12.3637
  0
LINE
  8
0
 10
-4.01721
 20
12.3637
 11
-3.23296
 21
12.5916
  0
LINE
  8
0
 10
-3.23296
 20
12.5916
 11
-2.43594
 21
12.7697
  0
LINE
  8
0
 10
-2.43594
 20
12.7697
 11
-1.62932
 21
12.8975
  0
LINE
  8
0
 10
-1.62932
 20
12.8975
 11
-0.816269
 21
12.9743
  0
LINE
  8
0
 10
-0.816269
 20
12.9743
 11
0
 21
13
  0
LINE
  8
0
 10
0
 20
13
 11
0.816269
 21
12.9743
  0
LINE
  8
0
 10
0.816269
 20
12.9743
 11
1.62932
 21
12.8975
  0
LINE
  8
0
 10
1.62932
 20
12.8975
 11
2.43594
 21
12.7697
  0
LINE
  8
0
 10
2.43594
 20
12.7697
 11
3.23296
 21
12.5916
  0
LINE
  8
0
 10
3.23296
 20
12.5916
 11
4.01721
 21
12.3637
  0
LINE
  8
0
 10
4.01721
 20
12.3637
 11
4.78561
 21
12.0871
  0
LINE
  8
0
 10
4.78561
 20
12.0871
 11
5.53513
 21
11.7627
  0
LINE
  8
0
 10
5.53513
 20
11.7627
 11
6.26279
 21
11.392
  0
LINE
  8
0
 10
6.26279
 20
11.392
 11
6.96574
 21
10.9763
  0
LINE
  8
0
 10
6.96574
 20
10.9763
 11
7.6412
 21
10.5172
  0
LINE
  8
0
 10
7.6412
 20
10.5172
 11
8.2865
 21
10.0167
  0
LINE
  8
0
 10
8.2865
 20
10.0167
 11
8.89911
 21
9.47658
  0
LINE
  8
0
 10
8.89911
 20
9.47658
 11
9.47658
 21
8.89911
  0
LINE
  8
0
 10
9.47658
 20
8.89911
 11
10.0167
 21
8.2865
  0
LINE
  8
0
 10
10.0167
 20
8.2865
 11
10.5172
 21
7.6412
  0
LINE
  8
0
 10
10.5172
 20
7.6412
 11
10.9763
 21
6.96574
  0
LINE
  8
0
 10
10.9763
 20
6.96574
 11
11.392
 21
6.26279
  0
LINE
  8
0
 10
11.392
 20
6.26279
 11
11.7627
 21
5.53513
  0
LINE
  8
0
 10
11.7627
 20
5.53513
 11
12.0871
 21
4.78561
  0
LINE
  8
0
 10
12.0871
 20
4.78561
 11
12.3637
 21
4.01721
  0
LINE
  8
0
 10
12.3637
 20
4.01721
 11
12.5916
 21
3.23296
  0
LINE
  8
0
 10
12.5916
 20
3.23296
 11
12.7697
 21
2.43594
  0
LINE
  8
0
 10
12.7697
 20
2.43594
 11
12.8975
 21
1.62932
  0
LINE
  8
0
 10
12.8975
 20
1.62932
 11
12.9743
 21
0.816269
  0
LINE
  8
0
 10
12.9743
 20
0.816269
 11
13
 21
0
  0
LINE
  8
0
 10
13
 20
0
 11
12.9743
 21
-0.816269
  0
LINE
  8
0
 10
12.9743
 20
-0.816269
 11
12.8975
 21
-1.62932
  0
LINE
  8
0
 10
12.8975
 20
-1.62932
 11
12.7697
 21
-2.43594
  0
LINE
  8
0
 10
12.7697
 20
-2.43594
 11
12.5916
 21
-3.23296
  0
LINE
  8
0
 10
12.5916
 20
-3.23296
 11
12.3637
 21
-4.01721
  0
LINE
  8
0
 10
12.3637
 20
-4.01721
 11
12.0871
 21
-4.78561
  0
LINE
  8
0
 10
12.0871
 20
-4.78561
 11
11.7627
 21
-5.53513
  0
LINE
  8
0
 10
11.7627
 20
-5.53513
 11
11.392
 21
-6.26279
  0
LINE
  8
0
 10
11.392
 20
-6.26279
 11
10.9763
 21
-6.96574
  0
LINE
  8
0
 10
10.9763
 20
-6.96574
 11
10.5172
 21
-7.6412
  0
LINE
  8
0
 10
10.5172
 20
-7.6412
 11
10.0167
 21
-8.2865
  0
LINE
  8
0
 10
10.0167
 20
-8.2865
 11
9.47658
 21
-8.89911
  0
LINE
  8
0
 10
9.47658
 20
-8.89911
 11
8.89911
 21
-9.47658
  0
LINE
  8
0
 10
8.89911
 20
-9.47658
 11
8.2865
 21
-10.0167
  0
LINE
  8
0
 10
8.2865
 20
-10.0167
 11
7.6412
 21
-10.5172
  0
LINE
  8
0
 10
7.6412
 20
-10.5172
 11
6.96574
 21
-10.9763
  0
LINE
  8
0
 10
6.96574
 20
-10.9763
 11
6.26279
 21
-11.392
  0
LINE
  8
0
 10
6.26279
 20
-11.392
 11
5.53513
 21
-11.7627
  0
LINE
  8
0
 10
5.53513
 20
-11.7627
 11
4.78561
 21
-12.0871
  0
LINE
  8
0
 10
4.78561
 20
-12.0871
 11
4.01721
 21
-12.3637
  0
LINE
  8
0
 10
4.01721
 20
-12.3637
 11
3.23296
 21
-12.5916
  0
LINE
  8
0
 10
3.23296
 20
-12.5916
 11
2.43594
 21
-12.7697
  0
LINE
  8
0
 10
2.43594
 20
-12.7697
 11
1.62932
 21
-12.8975
  0
LINE
  8
0
 10
1.62932
 20
-12.8975
 11
0.816269
 21
-12.9743
  0
LINE
  8
0
 10
0.816269
 20
-12.9743
 11
0
 21
-13
  0
LINE
  8
0
 10
0
 20
-13
 11
-0.816269
 21
-12.9743
  0
ENDSEC
  0
SECTION
  2
OBJECTS
  0
DICTIONARY
  0
ENDSEC
  0
EOF
