  0
SECTION
  2
BLOCKS
  0
ENDSEC
  0
SECTION
  2
ENTITIES
  0
LINE
  8
0
 10
2.15308
 20
-34.2223
 11
4.29767
 21
-34.0196
  0
LINE
  8
0
 10
4.29767
 20
-34.0196
 11
6.42529
 21
-33.6826
  0
LINE
  8
0
 10
6.42529
 20
-33.6826
 11
8.52757
 21
-33.2127
  0
LINE
  8
0
 10
8.52757
 20
-33.2127
 11
10.5962
 21
-32.6117
  0
LINE
  8
0
 10
10.5962
 20
-32.6117
 11
12.623
 21
-31.882
  0
LINE
  8
0
 10
12.623
 20
-31.882
 11
14.6
 21
-31.0265
  0
LINE
  8
0
 10
14.6
 20
-31.0265
 11
16.5193
 21
-30.0486
  0
LINE
  8
0
 10
16.5193
 20
-30.0486
 11
18.3735
 21
-28.952
  0
LINE
  8
0
 10
18.3735
 20
-28.952
 11
20.1552
 21
-27.7412
  0
LINE
  8
0
 10
20.1552
 20
-27.7412
 11
21.8573
 21
-26.4209
  0
LINE
  8
0
 10
21.8573
 20
-26.4209
 11
23.4731
 21
-24.9963
  0
LINE
  8
0
 10
23.4731
 20
-24.9963
 11
24.9963
 21
-23.4731
  0
LINE
  8
0
 10
24.9963
 20
-23.4731
 11
26.4209
 21
-21.8573
  0
LINE
  8
0
 10
26.4209
 20
-21.8573
 11
27.7412
 21
-20.1552
  0
LINE
  8
0
 10
27.7412
 20
-20.1552
 11
28.952
 21
-18.3735
  0
LINE
  8
0
 10
28.952
 20
-18.3735
 11
30.0486
 21
-16.5193
  0
LINE
  8
0
 10
30.0486
 20
-16.5193
 11
31.0265
 21
-14.6
  0
LINE
  8
0
 10
31.0265
 20
-14.6
 11
31.882
 21
-12.623
  0
LINE
  8
0
 10
31.882
 20
-12.623
 11
32.6117
 21
-10.5962
  0
LINE
  8
0
 10
32.6117
 20
-10.5962
 11
33.2127
 21
-8.52757
  0
LINE
  8
0
 10
33.2127
 20
-8.52757
 11
33.6826
 21
-6.42529
  0
LINE
  8
0
 10
33.6826
 20
-6.42529
 11
34.0196
 21
-4.29767
  0
LINE
  8
0
 10
34.0196
 20
-4.29767
 11
34.2223
 21
-2.15308
  0
LINE
  8
0
 10
34.2223
 20
-2.15308
 11
34.29
 21
0
  0
LINE
  8
0
 10
34.29
 20
0
 11
34.2223
 21
2.15308
  0
LINE
  8
0
 10
34.2223
 20
2.15308
 11
34.0196
 21
4.29767
  0
LINE
  8
0
 10
34.0196
 20
4.29767
 11
33.6826
 21
6.42529
  0
LINE
  8
0
 10
33.6826
 20
6.42529
 11
33.2127
 21
8.52757
  0
LINE
  8
0
 10
33.2127
 20
8.52757
 11
32.6117
 21
10.5962
  0
LINE
  8
0
 10
32.6117
 20
10.5962
 11
31.882
 21
12.623
  0
LINE
  8
0
 10
31.882
 20
12.623
 11
31.0265
 21
14.6
  0
LINE
  8
0
 10
31.0265
 20
14.6
 11
30.0486
 21
16.5193
  0
LINE
  8
0
 10
30.0486
 20
16.5193
 11
28.952
 21
18.3735
  0
LINE
  8
0
 10
28.952
 20
18.3735
 11
27.7412
 21
20.1552
  0
LINE
  8
0
 10
27.7412
 20
20.1552
 11
26.4209
 21
21.8573
  0
LINE
  8
0
 10
26.4209
 20
21.8573
 11
24.9963
 21
23.4731
  0
LINE
  8
0
 10
24.9963
 20
23.4731
 11
23.4731
 21
24.9963
  0
LINE
  8
0
 10
23.4731
 20
24.9963
 11
21.8573
 21
26.4209
  0
LINE
  8
0
 10
21.8573
 20
26.4209
 11
20.1552
 21
27.7412
  0
LINE
  8
0
 10
20.1552
 20
27.7412
 11
18.3735
 21
28.952
  0
LINE
  8
0
 10
18.3735
 20
28.952
 11
16.5193
 21
30.0486
  0
LINE
  8
0
 10
16.5193
 20
30.0486
 11
14.6
 21
31.0265
  0
LINE
  8
0
 10
14.6
 20
31.0265
 11
12.623
 21
31.882
  0
LINE
  8
0
 10
12.623
 20
31.882
 11
10.5962
 21
32.6117
  0
LINE
  8
0
 10
10.5962
 20
32.6117
 11
8.52757
 21
33.2127
  0
LINE
  8
0
 10
8.52757
 20
33.2127
 11
6.42529
 21
33.6826
  0
LINE
  8
0
 10
6.42529
 20
33.6826
 11
4.29767
 21
34.0196
  0
LINE
  8
0
 10
4.29767
 20
34.0196
 11
2.15308
 21
34.2223
  0
LINE
  8
0
 10
2.15308
 20
34.2223
 11
0
 21
34.29
  0
LINE
  8
0
 10
0
 20
34.29
 11
-2.15308
 21
34.2223
  0
LINE
  8
0
 10
-2.15308
 20
34.2223
 11
-4.29767
 21
34.0196
  0
LINE
  8
0
 10
-4.29767
 20
34.0196
 11
-6.42529
 21
33.6826
  0
LINE
  8
0
 10
-6.42529
 20
33.6826
 11
-8.52757
 21
33.2127
  0
LINE
  8
0
 10
-8.52757
 20
33.2127
 11
-10.5962
 21
32.6117
  0
LINE
  8
0
 10
-10.5962
 20
32.6117
 11
-12.623
 21
31.882
  0
LINE
  8
0
 10
-12.623
 20
31.882
 11
-14.6
 21
31.0265
  0
LINE
  8
0
 10
-14.6
 20
31.0265
 11
-16.5193
 21
30.0486
  0
LINE
  8
0
 10
-16.5193
 20
30.0486
 11
-18.3735
 21
28.952
  0
LINE
  8
0
 10
-18.3735
 20
28.952
 11
-20.1552
 21
27.7412
  0
LINE
  8
0
 10
-20.1552
 20
27.7412
 11
-21.8573
 21
26.4209
  0
LINE
  8
0
 10
-21.8573
 20
26.4209
 11
-23.4731
 21
24.9963
  0
LINE
  8
0
 10
-23.4731
 20
24.9963
 11
-24.9963
 21
23.4731
  0
LINE
  8
0
 10
-24.9963
 20
23.4731
 11
-26.4209
 21
21.8573
  0
LINE
  8
0
 10
-26.4209
 20
21.8573
 11
-27.7412
 21
20.1552
  0
LINE
  8
0
 10
-27.7412
 20
20.1552
 11
-28.952
 21
18.3735
  0
LINE
  8
0
 10
-28.952
 20
18.3735
 11
-30.0486
 21
16.5193
  0
LINE
  8
0
 10
-30.0486
 20
16.5193
 11
-31.0265
 21
14.6
  0
LINE
  8
0
 10
-31.0265
 20
14.6
 11
-31.882
 21
12.623
  0
LINE
  8
0
 10
-31.882
 20
12.623
 11
-32.6117
 21
10.5962
  0
LINE
  8
0
 10
-32.6117
 20
10.5962
 11
-33.2127
 21
8.52757
  0
LINE
  8
0
 10
-33.2127
 20
8.52757
 11
-33.6826
 21
6.42529
  0
LINE
  8
0
 10
-33.6826
 20
6.42529
 11
-34.0196
 21
4.29767
  0
LINE
  8
0
 10
-34.0196
 20
4.29767
 11
-34.2223
 21
2.15308
  0
LINE
  8
0
 10
-34.2223
 20
2.15308
 11
-34.29
 21
0
  0
LINE
  8
0
 10
-34.29
 20
0
 11
-34.2223
 21
-2.15308
  0
LINE
  8
0
 10
-34.2223
 20
-2.15308
 11
-34.0196
 21
-4.29767
  0
LINE
  8
0
 10
-34.0196
 20
-4.29767
 11
-33.6826
 21
-6.42529
  0
LINE
  8
0
 10
-33.6826
 20
-6.42529
 11
-33.2127
 21
-8.52757
  0
LINE
  8
0
 10
-33.2127
 20
-8.52757
 11
-32.6117
 21
-10.5962
  0
LINE
  8
0
 10
-32.6117
 20
-10.5962
 11
-31.882
 21
-12.623
  0
LINE
  8
0
 10
-31.882
 20
-12.623
 11
-31.0265
 21
-14.6
  0
LINE
  8
0
 10
-31.0265
 20
-14.6
 11
-30.0486
 21
-16.5193
  0
LINE
  8
0
 10
-30.0486
 20
-16.5193
 11
-28.952
 21
-18.3735
  0
LINE
  8
0
 10
-28.952
 20
-18.3735
 11
-27.7412
 21
-20.1552
  0
LINE
  8
0
 10
-27.7412
 20
-20.1552
 11
-26.4209
 21
-21.8573
  0
LINE
  8
0
 10
-26.4209
 20
-21.8573
 11
-24.9963
 21
-23.4731
  0
LINE
  8
0
 10
-24.9963
 20
-23.4731
 11
-23.4731
 21
-24.9963
  0
LINE
  8
0
 10
-23.4731
 20
-24.9963
 11
-21.8573
 21
-26.4209
  0
LINE
  8
0
 10
-21.8573
 20
-26.4209
 11
-20.1552
 21
-27.7412
  0
LINE
  8
0
 10
-20.1552
 20
-27.7412
 11
-18.3735
 21
-28.952
  0
LINE
  8
0
 10
-18.3735
 20
-28.952
 11
-16.5193
 21
-30.0486
  0
LINE
  8
0
 10
-16.5193
 20
-30.0486
 11
-14.6
 21
-31.0265
  0
LINE
  8
0
 10
-14.6
 20
-31.0265
 11
-12.623
 21
-31.882
  0
LINE
  8
0
 10
-12.623
 20
-31.882
 11
-10.5962
 21
-32.6117
  0
LINE
  8
0
 10
-10.5962
 20
-32.6117
 11
-8.52757
 21
-33.2127
  0
LINE
  8
0
 10
-8.52757
 20
-33.2127
 11
-6.42529
 21
-33.6826
  0
LINE
  8
0
 10
-6.42529
 20
-33.6826
 11
-4.29767
 21
-34.0196
  0
LINE
  8
0
 10
-4.29767
 20
-34.0196
 11
-2.15308
 21
-34.2223
  0
LINE
  8
0
 10
-2.15308
 20
-34.2223
 11
0
 21
-34.29
  0
LINE
  8
0
 10
0
 20
-34.29
 11
2.15308
 21
-34.2223
  0
ENDSEC
  0
SECTION
  2
OBJECTS
  0
DICTIONARY
  0
ENDSEC
  0
EOF
