  0
SECTION
  2
BLOCKS
  0
ENDSEC
  0
SECTION
  2
ENTITIES
  0
LINE
  8
0
 10
2.15308
 20
-34.2223
 11
4.29767
 21
-34.0196
  0
LINE
  8
0
 10
4.29767
 20
-34.0196
 11
6.42529
 21
-33.6826
  0
LINE
  8
0
 10
6.42529
 20
-33.6826
 11
8.52757
 21
-33.2127
  0
LINE
  8
0
 10
8.52757
 20
-33.2127
 11
10.5962
 21
-32.6117
  0
LINE
  8
0
 10
10.5962
 20
-32.6117
 11
12.623
 21
-31.882
  0
LINE
  8
0
 10
12.623
 20
-31.882
 11
14.6
 21
-31.0265
  0
LINE
  8
0
 10
14.6
 20
-31.0265
 11
16.5193
 21
-30.0486
  0
LINE
  8
0
 10
16.5193
 20
-30.0486
 11
18.3735
 21
-28.952
  0
LINE
  8
0
 10
18.3735
 20
-28.952
 11
20.1552
 21
-27.7412
  0
LINE
  8
0
 10
20.1552
 20
-27.7412
 11
21.8573
 21
-26.4209
  0
LINE
  8
0
 10
21.8573
 20
-26.4209
 11
23.4731
 21
-24.9963
  0
LINE
  8
0
 10
23.4731
 20
-24.9963
 11
24.9963
 21
-23.4731
  0
LINE
  8
0
 10
24.9963
 20
-23.4731
 11
26.4209
 21
-21.8573
  0
LINE
  8
0
 10
26.4209
 20
-21.8573
 11
27.7412
 21
-20.1552
  0
LINE
  8
0
 10
27.7412
 20
-20.1552
 11
28.952
 21
-18.3735
  0
LINE
  8
0
 10
28.952
 20
-18.3735
 11
30.0486
 21
-16.5193
  0
LINE
  8
0
 10
30.0486
 20
-16.5193
 11
31.0265
 21
-14.6
  0
LINE
  8
0
 10
31.0265
 20
-14.6
 11
31.882
 21
-12.623
  0
LINE
  8
0
 10
31.882
 20
-12.623
 11
32.6117
 21
-10.5962
  0
LINE
  8
0
 10
32.6117
 20
-10.5962
 11
33.2127
 21
-8.52757
  0
LINE
  8
0
 10
33.2127
 20
-8.52757
 11
33.6826
 21
-6.42529
  0
LINE
  8
0
 10
33.6826
 20
-6.42529
 11
34.0196
 21
-4.29767
  0
LINE
  8
0
 10
34.0196
 20
-4.29767
 11
34.2223
 21
-2.15308
  0
LINE
  8
0
 10
34.2223
 20
-2.15308
 11
34.29
 21
0
  0
LINE
  8
0
 10
34.29
 20
0
 11
34.2223
 21
2.15308
  0
LINE
  8
0
 10
34.2223
 20
2.15308
 11
34.0196
 21
4.29767
  0
LINE
  8
0
 10
34.0196
 20
4.29767
 11
33.6826
 21
6.42529
  0
LINE
  8
0
 10
33.6826
 20
6.42529
 11
33.2127
 21
8.52757
  0
LINE
  8
0
 10
33.2127
 20
8.52757
 11
32.6117
 21
10.5962
  0
LINE
  8
0
 10
32.6117
 20
10.5962
 11
31.882
 21
12.623
  0
LINE
  8
0
 10
31.882
 20
12.623
 11
31.0265
 21
14.6
  0
LINE
  8
0
 10
31.0265
 20
14.6
 11
30.0486
 21
16.5193
  0
LINE
  8
0
 10
30.0486
 20
16.5193
 11
28.952
 21
18.3735
  0
LINE
  8
0
 10
28.952
 20
18.3735
 11
27.7412
 21
20.1552
  0
LINE
  8
0
 10
27.7412
 20
20.1552
 11
26.4209
 21
21.8573
  0
LINE
  8
0
 10
26.4209
 20
21.8573
 11
24.9963
 21
23.4731
  0
LINE
  8
0
 10
24.9963
 20
23.4731
 11
23.4731
 21
24.9963
  0
LINE
  8
0
 10
23.4731
 20
24.9963
 11
21.8573
 21
26.4209
  0
LINE
  8
0
 10
21.8573
 20
26.4209
 11
20.1552
 21
27.7412
  0
LINE
  8
0
 10
20.1552
 20
27.7412
 11
18.3735
 21
28.952
  0
LINE
  8
0
 10
18.3735
 20
28.952
 11
16.5193
 21
30.0486
  0
LINE
  8
0
 10
16.5193
 20
30.0486
 11
14.6
 21
31.0265
  0
LINE
  8
0
 10
14.6
 20
31.0265
 11
12.623
 21
31.882
  0
LINE
  8
0
 10
12.623
 20
31.882
 11
10.5962
 21
32.6117
  0
LINE
  8
0
 10
10.5962
 20
32.6117
 11
8.52757
 21
33.2127
  0
LINE
  8
0
 10
8.52757
 20
33.2127
 11
6.42529
 21
33.6826
  0
LINE
  8
0
 10
6.42529
 20
33.6826
 11
4.29767
 21
34.0196
  0
LINE
  8
0
 10
4.29767
 20
34.0196
 11
2.15308
 21
34.2223
  0
LINE
  8
0
 10
2.15308
 20
34.2223
 11
0
 21
34.29
  0
LINE
  8
0
 10
0
 20
34.29
 11
-2.15308
 21
34.2223
  0
LINE
  8
0
 10
-2.15308
 20
34.2223
 11
-4.29767
 21
34.0196
  0
LINE
  8
0
 10
-4.29767
 20
34.0196
 11
-6.42529
 21
33.6826
  0
LINE
  8
0
 10
-6.42529
 20
33.6826
 11
-8.52757
 21
33.2127
  0
LINE
  8
0
 10
-8.52757
 20
33.2127
 11
-10.5962
 21
32.6117
  0
LINE
  8
0
 10
-10.5962
 20
32.6117
 11
-12.623
 21
31.882
  0
LINE
  8
0
 10
-12.623
 20
31.882
 11
-14.6
 21
31.0265
  0
LINE
  8
0
 10
-14.6
 20
31.0265
 11
-16.5193
 21
30.0486
  0
LINE
  8
0
 10
-16.5193
 20
30.0486
 11
-18.3735
 21
28.952
  0
LINE
  8
0
 10
-18.3735
 20
28.952
 11
-20.1552
 21
27.7412
  0
LINE
  8
0
 10
-20.1552
 20
27.7412
 11
-21.8573
 21
26.4209
  0
LINE
  8
0
 10
-21.8573
 20
26.4209
 11
-23.4731
 21
24.9963
  0
LINE
  8
0
 10
-23.4731
 20
24.9963
 11
-24.9963
 21
23.4731
  0
LINE
  8
0
 10
-24.9963
 20
23.4731
 11
-26.4209
 21
21.8573
  0
LINE
  8
0
 10
-26.4209
 20
21.8573
 11
-27.7412
 21
20.1552
  0
LINE
  8
0
 10
-27.7412
 20
20.1552
 11
-28.952
 21
18.3735
  0
LINE
  8
0
 10
-28.952
 20
18.3735
 11
-30.0486
 21
16.5193
  0
LINE
  8
0
 10
-30.0486
 20
16.5193
 11
-31.0265
 21
14.6
  0
LINE
  8
0
 10
-31.0265
 20
14.6
 11
-31.882
 21
12.623
  0
LINE
  8
0
 10
-31.882
 20
12.623
 11
-32.6117
 21
10.5962
  0
LINE
  8
0
 10
-32.6117
 20
10.5962
 11
-33.2127
 21
8.52757
  0
LINE
  8
0
 10
-33.2127
 20
8.52757
 11
-33.6826
 21
6.42529
  0
LINE
  8
0
 10
-33.6826
 20
6.42529
 11
-34.0196
 21
4.29767
  0
LINE
  8
0
 10
-34.0196
 20
4.29767
 11
-34.2223
 21
2.15308
  0
LINE
  8
0
 10
-34.2223
 20
2.15308
 11
-34.29
 21
0
  0
LINE
  8
0
 10
-34.29
 20
0
 11
-34.2223
 21
-2.15308
  0
LINE
  8
0
 10
-34.2223
 20
-2.15308
 11
-34.0196
 21
-4.29767
  0
LINE
  8
0
 10
-34.0196
 20
-4.29767
 11
-33.6826
 21
-6.42529
  0
LINE
  8
0
 10
-33.6826
 20
-6.42529
 11
-33.2127
 21
-8.52757
  0
LINE
  8
0
 10
-33.2127
 20
-8.52757
 11
-32.6117
 21
-10.5962
  0
LINE
  8
0
 10
-32.6117
 20
-10.5962
 11
-31.882
 21
-12.623
  0
LINE
  8
0
 10
-31.882
 20
-12.623
 11
-31.0265
 21
-14.6
  0
LINE
  8
0
 10
-31.0265
 20
-14.6
 11
-30.0486
 21
-16.5193
  0
LINE
  8
0
 10
-30.0486
 20
-16.5193
 11
-28.952
 21
-18.3735
  0
LINE
  8
0
 10
-28.952
 20
-18.3735
 11
-27.7412
 21
-20.1552
  0
LINE
  8
0
 10
-27.7412
 20
-20.1552
 11
-26.4209
 21
-21.8573
  0
LINE
  8
0
 10
-26.4209
 20
-21.8573
 11
-24.9963
 21
-23.4731
  0
LINE
  8
0
 10
-24.9963
 20
-23.4731
 11
-23.4731
 21
-24.9963
  0
LINE
  8
0
 10
-23.4731
 20
-24.9963
 11
-21.8573
 21
-26.4209
  0
LINE
  8
0
 10
-21.8573
 20
-26.4209
 11
-20.1552
 21
-27.7412
  0
LINE
  8
0
 10
-20.1552
 20
-27.7412
 11
-18.3735
 21
-28.952
  0
LINE
  8
0
 10
-18.3735
 20
-28.952
 11
-16.5193
 21
-30.0486
  0
LINE
  8
0
 10
-16.5193
 20
-30.0486
 11
-14.6
 21
-31.0265
  0
LINE
  8
0
 10
-14.6
 20
-31.0265
 11
-12.623
 21
-31.882
  0
LINE
  8
0
 10
-12.623
 20
-31.882
 11
-10.5962
 21
-32.6117
  0
LINE
  8
0
 10
-10.5962
 20
-32.6117
 11
-8.52757
 21
-33.2127
  0
LINE
  8
0
 10
-8.52757
 20
-33.2127
 11
-6.42529
 21
-33.6826
  0
LINE
  8
0
 10
-6.42529
 20
-33.6826
 11
-4.29767
 21
-34.0196
  0
LINE
  8
0
 10
-4.29767
 20
-34.0196
 11
-2.15308
 21
-34.2223
  0
LINE
  8
0
 10
-2.15308
 20
-34.2223
 11
0
 21
-34.29
  0
LINE
  8
0
 10
0
 20
-34.29
 11
2.15308
 21
-34.2223
  0
LINE
  8
0
 10
-0.612198
 20
-9.73076
 11
-1.22198
 21
-9.67311
  0
LINE
  8
0
 10
-1.22198
 20
-9.67311
 11
-1.82697
 21
-9.57729
  0
LINE
  8
0
 10
-1.82697
 20
-9.57729
 11
-2.42471
 21
-9.44368
  0
LINE
  8
0
 10
-2.42471
 20
-9.44368
 11
-3.01291
 21
-9.2728
  0
LINE
  8
0
 10
-3.01291
 20
-9.2728
 11
-3.5892
 21
-9.06531
  0
LINE
  8
0
 10
-3.5892
 20
-9.06531
 11
-4.15134
 21
-8.82205
  0
LINE
  8
0
 10
-4.15134
 20
-8.82205
 11
-4.6971
 21
-8.54398
  0
LINE
  8
0
 10
-4.6971
 20
-8.54398
 11
-5.2243
 21
-8.23219
  0
LINE
  8
0
 10
-5.2243
 20
-8.23219
 11
-5.7309
 21
-7.88791
  0
LINE
  8
0
 10
-5.7309
 20
-7.88791
 11
-6.21487
 21
-7.5125
  0
LINE
  8
0
 10
-6.21487
 20
-7.5125
 11
-6.67433
 21
-7.10744
  0
LINE
  8
0
 10
-6.67433
 20
-7.10744
 11
-7.10744
 21
-6.67433
  0
LINE
  8
0
 10
-7.10744
 20
-6.67433
 11
-7.5125
 21
-6.21487
  0
LINE
  8
0
 10
-7.5125
 20
-6.21487
 11
-7.88791
 21
-5.7309
  0
LINE
  8
0
 10
-7.88791
 20
-5.7309
 11
-8.23219
 21
-5.2243
  0
LINE
  8
0
 10
-8.23219
 20
-5.2243
 11
-8.54398
 21
-4.6971
  0
LINE
  8
0
 10
-8.54398
 20
-4.6971
 11
-8.82205
 21
-4.15134
  0
LINE
  8
0
 10
-8.82205
 20
-4.15134
 11
-9.06531
 21
-3.5892
  0
LINE
  8
0
 10
-9.06531
 20
-3.5892
 11
-9.2728
 21
-3.01291
  0
LINE
  8
0
 10
-9.2728
 20
-3.01291
 11
-9.44368
 21
-2.42471
  0
LINE
  8
0
 10
-9.44368
 20
-2.42471
 11
-9.57729
 21
-1.82697
  0
LINE
  8
0
 10
-9.57729
 20
-1.82697
 11
-9.67311
 21
-1.22198
  0
LINE
  8
0
 10
-9.67311
 20
-1.22198
 11
-9.73076
 21
-0.612198
  0
LINE
  8
0
 10
-9.73076
 20
-0.612198
 11
-9.75
 21
0
  0
LINE
  8
0
 10
-9.75
 20
0
 11
-9.73076
 21
0.612198
  0
LINE
  8
0
 10
-9.73076
 20
0.612198
 11
-9.67311
 21
1.22198
  0
LINE
  8
0
 10
-9.67311
 20
1.22198
 11
-9.57729
 21
1.82697
  0
LINE
  8
0
 10
-9.57729
 20
1.82697
 11
-9.44368
 21
2.42471
  0
LINE
  8
0
 10
-9.44368
 20
2.42471
 11
-9.2728
 21
3.01291
  0
LINE
  8
0
 10
-9.2728
 20
3.01291
 11
-9.06531
 21
3.5892
  0
LINE
  8
0
 10
-9.06531
 20
3.5892
 11
-8.82205
 21
4.15134
  0
LINE
  8
0
 10
-8.82205
 20
4.15134
 11
-8.54398
 21
4.6971
  0
LINE
  8
0
 10
-8.54398
 20
4.6971
 11
-8.23219
 21
5.2243
  0
LINE
  8
0
 10
-8.23219
 20
5.2243
 11
-7.88791
 21
5.7309
  0
LINE
  8
0
 10
-7.88791
 20
5.7309
 11
-7.5125
 21
6.21487
  0
LINE
  8
0
 10
-7.5125
 20
6.21487
 11
-7.10744
 21
6.67433
  0
LINE
  8
0
 10
-7.10744
 20
6.67433
 11
-6.67433
 21
7.10744
  0
LINE
  8
0
 10
-6.67433
 20
7.10744
 11
-6.21487
 21
7.5125
  0
LINE
  8
0
 10
-6.21487
 20
7.5125
 11
-5.7309
 21
7.88791
  0
LINE
  8
0
 10
-5.7309
 20
7.88791
 11
-5.2243
 21
8.23219
  0
LINE
  8
0
 10
-5.2243
 20
8.23219
 11
-4.6971
 21
8.54398
  0
LINE
  8
0
 10
-4.6971
 20
8.54398
 11
-4.15134
 21
8.82205
  0
LINE
  8
0
 10
-4.15134
 20
8.82205
 11
-3.5892
 21
9.06531
  0
LINE
  8
0
 10
-3.5892
 20
9.06531
 11
-3.01291
 21
9.2728
  0
LINE
  8
0
 10
-3.01291
 20
9.2728
 11
-2.42471
 21
9.44368
  0
LINE
  8
0
 10
-2.42471
 20
9.44368
 11
-1.82697
 21
9.57729
  0
LINE
  8
0
 10
-1.82697
 20
9.57729
 11
-1.22198
 21
9.67311
  0
LINE
  8
0
 10
-1.22198
 20
9.67311
 11
-0.612198
 21
9.73076
  0
LINE
  8
0
 10
-0.612198
 20
9.73076
 11
0
 21
9.75
  0
LINE
  8
0
 10
0
 20
9.75
 11
0.612198
 21
9.73076
  0
LINE
  8
0
 10
0.612198
 20
9.73076
 11
1.22198
 21
9.67311
  0
LINE
  8
0
 10
1.22198
 20
9.67311
 11
1.82697
 21
9.57729
  0
LINE
  8
0
 10
1.82697
 20
9.57729
 11
2.42471
 21
9.44368
  0
LINE
  8
0
 10
2.42471
 20
9.44368
 11
3.01291
 21
9.2728
  0
LINE
  8
0
 10
3.01291
 20
9.2728
 11
3.5892
 21
9.06531
  0
LINE
  8
0
 10
3.5892
 20
9.06531
 11
4.15134
 21
8.82205
  0
LINE
  8
0
 10
4.15134
 20
8.82205
 11
4.6971
 21
8.54398
  0
LINE
  8
0
 10
4.6971
 20
8.54398
 11
5.2243
 21
8.23219
  0
LINE
  8
0
 10
5.2243
 20
8.23219
 11
5.7309
 21
7.88791
  0
LINE
  8
0
 10
5.7309
 20
7.88791
 11
6.21487
 21
7.5125
  0
LINE
  8
0
 10
6.21487
 20
7.5125
 11
6.67433
 21
7.10744
  0
LINE
  8
0
 10
6.67433
 20
7.10744
 11
7.10744
 21
6.67433
  0
LINE
  8
0
 10
7.10744
 20
6.67433
 11
7.5125
 21
6.21487
  0
LINE
  8
0
 10
7.5125
 20
6.21487
 11
7.88791
 21
5.7309
  0
LINE
  8
0
 10
7.88791
 20
5.7309
 11
8.23219
 21
5.2243
  0
LINE
  8
0
 10
8.23219
 20
5.2243
 11
8.54398
 21
4.6971
  0
LINE
  8
0
 10
8.54398
 20
4.6971
 11
8.82205
 21
4.15134
  0
LINE
  8
0
 10
8.82205
 20
4.15134
 11
9.06531
 21
3.5892
  0
LINE
  8
0
 10
9.06531
 20
3.5892
 11
9.2728
 21
3.01291
  0
LINE
  8
0
 10
9.2728
 20
3.01291
 11
9.44368
 21
2.42471
  0
LINE
  8
0
 10
9.44368
 20
2.42471
 11
9.57729
 21
1.82697
  0
LINE
  8
0
 10
9.57729
 20
1.82697
 11
9.67311
 21
1.22198
  0
LINE
  8
0
 10
9.67311
 20
1.22198
 11
9.73076
 21
0.612198
  0
LINE
  8
0
 10
9.73076
 20
0.612198
 11
9.75
 21
0
  0
LINE
  8
0
 10
9.75
 20
0
 11
9.73076
 21
-0.612198
  0
LINE
  8
0
 10
9.73076
 20
-0.612198
 11
9.67311
 21
-1.22198
  0
LINE
  8
0
 10
9.67311
 20
-1.22198
 11
9.57729
 21
-1.82697
  0
LINE
  8
0
 10
9.57729
 20
-1.82697
 11
9.44368
 21
-2.42471
  0
LINE
  8
0
 10
9.44368
 20
-2.42471
 11
9.2728
 21
-3.01291
  0
LINE
  8
0
 10
9.2728
 20
-3.01291
 11
9.06531
 21
-3.5892
  0
LINE
  8
0
 10
9.06531
 20
-3.5892
 11
8.82205
 21
-4.15134
  0
LINE
  8
0
 10
8.82205
 20
-4.15134
 11
8.54398
 21
-4.6971
  0
LINE
  8
0
 10
8.54398
 20
-4.6971
 11
8.23219
 21
-5.2243
  0
LINE
  8
0
 10
8.23219
 20
-5.2243
 11
7.88791
 21
-5.7309
  0
LINE
  8
0
 10
7.88791
 20
-5.7309
 11
7.5125
 21
-6.21487
  0
LINE
  8
0
 10
7.5125
 20
-6.21487
 11
7.10744
 21
-6.67433
  0
LINE
  8
0
 10
7.10744
 20
-6.67433
 11
6.67433
 21
-7.10744
  0
LINE
  8
0
 10
6.67433
 20
-7.10744
 11
6.21487
 21
-7.5125
  0
LINE
  8
0
 10
6.21487
 20
-7.5125
 11
5.7309
 21
-7.88791
  0
LINE
  8
0
 10
5.7309
 20
-7.88791
 11
5.2243
 21
-8.23219
  0
LINE
  8
0
 10
5.2243
 20
-8.23219
 11
4.6971
 21
-8.54398
  0
LINE
  8
0
 10
4.6971
 20
-8.54398
 11
4.15134
 21
-8.82205
  0
LINE
  8
0
 10
4.15134
 20
-8.82205
 11
3.5892
 21
-9.06531
  0
LINE
  8
0
 10
3.5892
 20
-9.06531
 11
3.01291
 21
-9.2728
  0
LINE
  8
0
 10
3.01291
 20
-9.2728
 11
2.42471
 21
-9.44368
  0
LINE
  8
0
 10
2.42471
 20
-9.44368
 11
1.82697
 21
-9.57729
  0
LINE
  8
0
 10
1.82697
 20
-9.57729
 11
1.22198
 21
-9.67311
  0
LINE
  8
0
 10
1.22198
 20
-9.67311
 11
0.612198
 21
-9.73076
  0
LINE
  8
0
 10
0.612198
 20
-9.73076
 11
0
 21
-9.75
  0
LINE
  8
0
 10
0
 20
-9.75
 11
-0.612198
 21
-9.73076
  0
ENDSEC
  0
SECTION
  2
OBJECTS
  0
DICTIONARY
  0
ENDSEC
  0
EOF
